<?xml version="1.0" encoding="UTF-8" standalone="no"?>
<!-- Generated by graphviz version 2.36.0 (20140111.2315)
-->

<!-- Title: G Pages: 1 -->

<svg
   xmlns:dc="http://purl.org/dc/elements/1.1/"
   xmlns:cc="http://creativecommons.org/ns#"
   xmlns:rdf="http://www.w3.org/1999/02/22-rdf-syntax-ns#"
   xmlns:svg="http://www.w3.org/2000/svg"
   xmlns="http://www.w3.org/2000/svg"
   xmlns:sodipodi="http://sodipodi.sourceforge.net/DTD/sodipodi-0.dtd"
   xmlns:inkscape="http://www.inkscape.org/namespaces/inkscape"
   width="372.04724"
   height="524.40942"
   id="svg3564"
   version="1.1"
   inkscape:version="0.48.4 r9939"
   sodipodi:docname="bowling.svg">
  <metadata
     id="metadata3673">
    <rdf:RDF>
      <cc:Work
         rdf:about="">
        <dc:format>image/svg+xml</dc:format>
        <dc:type
           rdf:resource="http://purl.org/dc/dcmitype/StillImage" />
      </cc:Work>
    </rdf:RDF>
  </metadata>
  <defs
     id="defs3671" />
  <sodipodi:namedview
     pagecolor="#ffffff"
     bordercolor="#666666"
     borderopacity="1"
     objecttolerance="10"
     gridtolerance="10"
     guidetolerance="10"
     inkscape:pageopacity="0"
     inkscape:pageshadow="2"
     inkscape:window-width="1920"
     inkscape:window-height="1025"
     id="namedview3669"
     showgrid="false"
     inkscape:zoom="0.7375"
     inkscape:cx="378.97168"
     inkscape:cy="4.8700507"
     inkscape:window-x="-3"
     inkscape:window-y="-3"
     inkscape:window-maximized="1"
     inkscape:current-layer="svg3564"
     units="mm"
     fit-margin-top="0"
     fit-margin-left="0"
     fit-margin-right="0"
     fit-margin-bottom="0" />
  <g
     id="base"
     label="base"
     transform="matrix(0.55859869,0,0,0.94861674,1.6864412,-5.3706132)">
    <rect
       style="fill:#ffffff;fill-opacity:1;fill-rule:nonzero;stroke:none"
       id="boundary"
       width="668.71649"
       height="474.99481"
       x="0"
       y="-0.6779663" />
  </g>
  <g
     id="game"
     label="game"
     class="node"
     transform="matrix(1.5325405,0,0,1.5325405,23.966737,404.8543)">
    <title
       id="title3572">Game</title>
    <polygon
       points="-0.5,-187 -0.5,-187 -0.5,-247 88.5,-247 88.5,-187 "
       id="polygon3574"
       style="fill:none;stroke:#000000" />
    <text
       x="44"
       y="-236.60001"
       font-size="8.00"
       id="text3576"
       style="font-size:8px;text-anchor:middle;font-family:Bitstream Vera Sans">Game</text>
    <polyline
       points="-0.5,-230 88.5,-230 "
       id="polyline3578"
       style="fill:none;stroke:#000000" />
    <text
       x="44"
       y="-219.60001"
       font-size="8.00"
       id="text3580"
       style="font-size:8px;text-anchor:middle;font-family:Bitstream Vera Sans" />
    <polyline
       points="-0.5,-213 88.5,-213 "
       id="polyline3582"
       style="fill:none;stroke:#000000" />
    <text
       x="7.5"
       y="-202.60001"
       font-size="8.00"
       id="text3584"
       style="font-size:8px;text-anchor:start;font-family:Bitstream Vera Sans">+ score : int</text>
    <text
       x="40.923767"
       y="-192.44865"
       font-size="8.00"
       id="text3586"
       style="font-size:8px;text-anchor:middle;font-family:Bitstream Vera Sans">+ rolls(pins : int)</text>
  </g>
  <!-- Frame -->
  <g
     id="frame"
     label="frame"
     class="node"
     transform="matrix(1.5325405,0,0,1.5325405,23.966737,404.8543)">
    <title
       id="title3589">Frame</title>
    <polygon
       points="112.5,-89 23.5,-89 23.5,-89 23.5,-149 112.5,-149 "
       id="polygon3591"
       style="fill:none;stroke:#000000" />
    <text
       x="68"
       y="-138.60001"
       font-size="8.00"
       id="text3593"
       style="font-size:8px;text-anchor:middle;font-family:Bitstream Vera Sans">Frame</text>
    <polyline
       points="23.5,-132 112.5,-132 "
       id="polyline3595"
       style="fill:none;stroke:#000000" />
    <text
       x="68"
       y="-121.6"
       font-size="8.00"
       id="text3597"
       style="font-size:8px;text-anchor:middle;font-family:Bitstream Vera Sans" />
  </g>
  <!-- Game&#45;&gt;Frame -->
  <g
     id="game_frame"
     label="game_frame"
     class="edge"
     transform="matrix(1.5325405,0,0,1.5325405,23.966737,404.8543)">
    <title
       id="title3606">Game-&gt;Frame</title>
    <path
       d="m 51.2659,-186.936 c 2.1885,8.754 4.6271,18.508 6.9509,27.803"
       id="path3608"
       inkscape:connector-curvature="0"
       style="fill:none;stroke:#000000" />
    <polygon
       points="58.2505,-158.998 58.2505,-158.998 58.2505,-158.998 59.4632,-154.147 53.8849,-157.906 60.6759,-149.296 60.6759,-149.296 60.6759,-149.296 62.6162,-160.089 59.4632,-154.147 "
       id="polygon3610"
       style="fill:#000000;stroke:#000000" />
    <text
       x="49.365242"
       y="-151.896"
       font-size="8.00"
       id="text3612"
       style="font-size:8px;text-anchor:middle;font-family:Bitstream Vera Sans">10</text>
  </g>
  <!-- Roll -->
  <g
     id="roll"
     label="roll"
     class="node"
     transform="matrix(1.5325405,0,0,1.5325405,23.966737,404.8543)">
    <title
       id="title3615">Roll</title>
    <polygon
       points="131,-0.5 77,-0.5 77,-0.5 77,-51.5 131,-51.5 "
       id="polygon3617"
       style="fill:none;stroke:#000000" />
    <text
       x="104"
       y="-41.099998"
       font-size="8.00"
       id="text3619"
       style="font-size:8px;text-anchor:middle;font-family:Bitstream Vera Sans">Roll</text>
    <polyline
       points="77,-34.5 131,-34.5 "
       id="polyline3621"
       style="fill:none;stroke:#000000" />
    <text
       x="104"
       y="-7.0999999"
       font-size="8.00"
       id="text3627"
       style="font-size:8px;text-anchor:middle;font-family:Bitstream Vera Sans" />
  </g>
  <!-- Frame&#45;&gt;Roll -->
  <g
     id="edge3"
     label="frame_roll"
     class="edge"
     transform="matrix(1.5325405,0,0,1.5325405,23.966737,404.8543)">
    <title
       id="title3630">Frame-&gt;Roll</title>
    <path
       d="m 79.4896,-88.9568 c 3.4757,8.7857 7.3256,18.5174 10.9246,27.6149"
       id="path3632"
       inkscape:connector-curvature="0"
       style="fill:none;stroke:#000000" />
    <polygon
       points="92.3521,-56.4432 90.5127,-61.0926 90.5127,-61.0926 90.5127,-61.0926 92.3521,-56.4432 86.3283,-59.4372 94.1915,-51.7938 94.1915,-51.7938 94.1915,-51.7938 94.6972,-62.748 "
       id="polygon3634"
       style="fill:#000000;stroke:#000000" />
    <text
       x="78.855431"
       y="-55.545151"
       font-size="8.00"
       id="text3636"
       style="font-size:8px;text-anchor:middle;font-family:Bitstream Vera Sans">1..2</text>
  </g>
  <!-- Tenth_Frame -->
  <g
     id="node4"
     label="tenth_frame"
     class="node"
     transform="matrix(1.5325405,0,0,1.5325405,23.966737,404.8543)">
    <title
       id="title3639">Tenth_Frame</title>
    <polygon
       points="175,-242.5 175,-191.5 107,-191.5 107,-191.5 107,-242.5 "
       id="polygon3641"
       style="fill:none;stroke:#000000" />
    <text
       x="141"
       y="-232.10001"
       font-size="8.00"
       id="text3643"
       style="font-size:8px;text-anchor:middle;font-family:Bitstream Vera Sans">Tenth Frame</text>
    <polyline
       points="107,-225.5 175,-225.5 "
       id="polyline3645"
       style="fill:none;stroke:#000000" />
    <text
       x="141"
       y="-215.10001"
       font-size="8.00"
       id="text3647"
       style="font-size:8px;text-anchor:middle;font-family:Bitstream Vera Sans" />
    <text
       x="141"
       y="-198.10001"
       font-size="8.00"
       id="text3651"
       style="font-size:8px;text-anchor:middle;font-family:Bitstream Vera Sans" />
  </g>
  <!-- Tenth_Frame&#45;&gt;Frame -->
  <g
     id="edge1"
     label="tenth_frame_frame"
     class="edge"
     transform="matrix(1.5325405,0,0,1.5325405,23.966737,404.8543)">
    <title
       id="title3654">Tenth_Frame-&gt;Frame</title>
    <path
       d="m 122.201,-191.278 c -7.887,10.372 -17.228,22.656 -25.9149,34.08"
       id="path3656"
       inkscape:connector-curvature="0"
       style="fill:none;stroke:#000000" />
    <polygon
       points="93.3737,-159.15 98.9457,-154.913 98.9457,-154.913 90.1067,-149.072 "
       id="polygon3658"
       style="fill:none;stroke:#000000" />
  </g>
  <!-- Tenth_Frame&#45;&gt;Roll -->
  <g
     id="edge4"
     label="tenth_frame_roll"
     class="edge"
     transform="matrix(1.5325405,0,0,1.5325405,23.966737,404.8543)">
    <title
       id="title3661">Tenth_Frame-&gt;Roll</title>
    <path
       d="M 138.012,-191.304 C 134.676,-165.409 128.717,-123.61 121,-88 c -1.874,8.6493 -4.251,17.8907 -6.628,26.4967"
       id="path3663"
       inkscape:connector-curvature="0"
       style="fill:none;stroke:#000000" />
    <polygon
       points="112.974,-56.5765 114.339,-61.3868 114.339,-61.3868 114.339,-61.3868 112.974,-56.5765 110.009,-62.6147 111.61,-51.7662 111.61,-51.7662 111.61,-51.7662 118.668,-60.159 "
       id="polygon3665"
       style="fill:#000000;stroke:#000000" />
    <text
       x="132.00836"
       y="-57.052689"
       font-size="8.00"
       id="text3667"
       style="font-size:8px;text-anchor:middle;font-family:Bitstream Vera Sans"
       inkscape:transform-center-x="-8.1355936">2..3</text>
  </g>
</svg>
